<mxfile host="app.diagrams.net" modified="2024-03-12T21:59:28.850Z" agent="Mozilla/5.0 (Windows NT 10.0; Win64; x64; rv:123.0) Gecko/20100101 Firefox/123.0" etag="U3jzxDecgF-x1Hcw4FXG" version="24.0.5" type="device">
  <diagram name="Page-1" id="CucCIQA29W26gzJZX_Ob">
    <mxGraphModel dx="1434" dy="746" grid="1" gridSize="10" guides="1" tooltips="1" connect="1" arrows="1" fold="1" page="1" pageScale="1" pageWidth="827" pageHeight="1169" math="0" shadow="0">
      <root>
        <mxCell id="0" />
        <mxCell id="1" parent="0" />
        <mxCell id="GUFgvOnC0UOVF5Jr0KTO-1" value="Preprocessing" style="rounded=1;whiteSpace=wrap;html=1;" parent="1" vertex="1">
          <mxGeometry x="354" y="220" width="120" height="60" as="geometry" />
        </mxCell>
        <mxCell id="GUFgvOnC0UOVF5Jr0KTO-2" value="XGBoost" style="rounded=1;whiteSpace=wrap;html=1;" parent="1" vertex="1">
          <mxGeometry x="160" y="440" width="100" height="60" as="geometry" />
        </mxCell>
        <mxCell id="GUFgvOnC0UOVF5Jr0KTO-3" value="XGBoost" style="rounded=1;whiteSpace=wrap;html=1;" parent="1" vertex="1">
          <mxGeometry x="580" y="440" width="100" height="60" as="geometry" />
        </mxCell>
        <mxCell id="GUFgvOnC0UOVF5Jr0KTO-5" value="XGBoost" style="rounded=1;whiteSpace=wrap;html=1;" parent="1" vertex="1">
          <mxGeometry x="300" y="440" width="100" height="60" as="geometry" />
        </mxCell>
        <mxCell id="GUFgvOnC0UOVF5Jr0KTO-6" value="..." style="text;html=1;align=center;verticalAlign=middle;whiteSpace=wrap;rounded=0;" parent="1" vertex="1">
          <mxGeometry x="460" y="470" width="60" height="30" as="geometry" />
        </mxCell>
        <mxCell id="GUFgvOnC0UOVF5Jr0KTO-7" value="&lt;div&gt;Select-K-Best, chi-squared test,&lt;/div&gt;&lt;div&gt;k = 20&lt;br&gt;&lt;/div&gt;" style="rounded=1;whiteSpace=wrap;html=1;" parent="1" vertex="1">
          <mxGeometry x="160" y="350" width="100" height="60" as="geometry" />
        </mxCell>
        <mxCell id="GUFgvOnC0UOVF5Jr0KTO-8" value="&lt;div&gt;Select-K-Best, chi-squared test,&lt;/div&gt;&lt;div&gt;k = 30&lt;br&gt;&lt;/div&gt;" style="rounded=1;whiteSpace=wrap;html=1;" parent="1" vertex="1">
          <mxGeometry x="300" y="350" width="100" height="60" as="geometry" />
        </mxCell>
        <mxCell id="GUFgvOnC0UOVF5Jr0KTO-9" value="&lt;div&gt;RFE, k = 30&lt;br&gt;&lt;/div&gt;" style="rounded=1;whiteSpace=wrap;html=1;" parent="1" vertex="1">
          <mxGeometry x="580" y="350" width="100" height="60" as="geometry" />
        </mxCell>
        <mxCell id="GUFgvOnC0UOVF5Jr0KTO-10" value="..." style="text;html=1;align=center;verticalAlign=middle;whiteSpace=wrap;rounded=0;" parent="1" vertex="1">
          <mxGeometry x="460" y="380" width="60" height="30" as="geometry" />
        </mxCell>
        <mxCell id="GUFgvOnC0UOVF5Jr0KTO-20" value="" style="endArrow=classic;html=1;rounded=0;entryX=0.5;entryY=0;entryDx=0;entryDy=0;exitX=0.5;exitY=1;exitDx=0;exitDy=0;" parent="1" source="GUFgvOnC0UOVF5Jr0KTO-1" target="GUFgvOnC0UOVF5Jr0KTO-7" edge="1">
          <mxGeometry width="50" height="50" relative="1" as="geometry">
            <mxPoint x="390" y="410" as="sourcePoint" />
            <mxPoint x="440" y="360" as="targetPoint" />
          </mxGeometry>
        </mxCell>
        <mxCell id="GUFgvOnC0UOVF5Jr0KTO-21" value="" style="endArrow=classic;html=1;rounded=0;exitX=0.5;exitY=1;exitDx=0;exitDy=0;entryX=0.5;entryY=0;entryDx=0;entryDy=0;" parent="1" source="GUFgvOnC0UOVF5Jr0KTO-1" target="GUFgvOnC0UOVF5Jr0KTO-8" edge="1">
          <mxGeometry width="50" height="50" relative="1" as="geometry">
            <mxPoint x="390" y="410" as="sourcePoint" />
            <mxPoint x="440" y="360" as="targetPoint" />
          </mxGeometry>
        </mxCell>
        <mxCell id="GUFgvOnC0UOVF5Jr0KTO-22" value="" style="endArrow=classic;html=1;rounded=0;entryX=0.5;entryY=0;entryDx=0;entryDy=0;exitX=0.5;exitY=1;exitDx=0;exitDy=0;" parent="1" source="GUFgvOnC0UOVF5Jr0KTO-1" target="GUFgvOnC0UOVF5Jr0KTO-9" edge="1">
          <mxGeometry width="50" height="50" relative="1" as="geometry">
            <mxPoint x="390" y="410" as="sourcePoint" />
            <mxPoint x="440" y="360" as="targetPoint" />
          </mxGeometry>
        </mxCell>
        <mxCell id="GUFgvOnC0UOVF5Jr0KTO-23" value="" style="endArrow=classic;html=1;rounded=0;entryX=0.5;entryY=0;entryDx=0;entryDy=0;" parent="1" source="GUFgvOnC0UOVF5Jr0KTO-7" target="GUFgvOnC0UOVF5Jr0KTO-2" edge="1">
          <mxGeometry width="50" height="50" relative="1" as="geometry">
            <mxPoint x="390" y="410" as="sourcePoint" />
            <mxPoint x="440" y="360" as="targetPoint" />
          </mxGeometry>
        </mxCell>
        <mxCell id="GUFgvOnC0UOVF5Jr0KTO-24" value="" style="endArrow=classic;html=1;rounded=0;entryX=0.5;entryY=0;entryDx=0;entryDy=0;exitX=0.5;exitY=1;exitDx=0;exitDy=0;" parent="1" source="GUFgvOnC0UOVF5Jr0KTO-8" target="GUFgvOnC0UOVF5Jr0KTO-5" edge="1">
          <mxGeometry width="50" height="50" relative="1" as="geometry">
            <mxPoint x="390" y="410" as="sourcePoint" />
            <mxPoint x="440" y="360" as="targetPoint" />
          </mxGeometry>
        </mxCell>
        <mxCell id="GUFgvOnC0UOVF5Jr0KTO-25" value="" style="endArrow=classic;html=1;rounded=0;entryX=0.5;entryY=0;entryDx=0;entryDy=0;exitX=0.5;exitY=1;exitDx=0;exitDy=0;" parent="1" source="GUFgvOnC0UOVF5Jr0KTO-9" target="GUFgvOnC0UOVF5Jr0KTO-3" edge="1">
          <mxGeometry width="50" height="50" relative="1" as="geometry">
            <mxPoint x="390" y="410" as="sourcePoint" />
            <mxPoint x="440" y="360" as="targetPoint" />
          </mxGeometry>
        </mxCell>
        <mxCell id="GUFgvOnC0UOVF5Jr0KTO-26" value="Result aggregation and analysis" style="rounded=1;whiteSpace=wrap;html=1;" parent="1" vertex="1">
          <mxGeometry x="354" y="555" width="120" height="60" as="geometry" />
        </mxCell>
        <mxCell id="GUFgvOnC0UOVF5Jr0KTO-27" value="" style="endArrow=classic;html=1;rounded=0;entryX=0.5;entryY=0;entryDx=0;entryDy=0;exitX=0.5;exitY=1;exitDx=0;exitDy=0;" parent="1" source="GUFgvOnC0UOVF5Jr0KTO-2" target="GUFgvOnC0UOVF5Jr0KTO-26" edge="1">
          <mxGeometry width="50" height="50" relative="1" as="geometry">
            <mxPoint x="390" y="410" as="sourcePoint" />
            <mxPoint x="440" y="360" as="targetPoint" />
          </mxGeometry>
        </mxCell>
        <mxCell id="GUFgvOnC0UOVF5Jr0KTO-28" value="" style="endArrow=classic;html=1;rounded=0;entryX=0.5;entryY=0;entryDx=0;entryDy=0;exitX=0.5;exitY=1;exitDx=0;exitDy=0;" parent="1" source="GUFgvOnC0UOVF5Jr0KTO-5" target="GUFgvOnC0UOVF5Jr0KTO-26" edge="1">
          <mxGeometry width="50" height="50" relative="1" as="geometry">
            <mxPoint x="390" y="410" as="sourcePoint" />
            <mxPoint x="440" y="360" as="targetPoint" />
          </mxGeometry>
        </mxCell>
        <mxCell id="GUFgvOnC0UOVF5Jr0KTO-29" value="" style="endArrow=classic;html=1;rounded=0;entryX=0.5;entryY=0;entryDx=0;entryDy=0;exitX=0.5;exitY=1;exitDx=0;exitDy=0;" parent="1" source="GUFgvOnC0UOVF5Jr0KTO-3" target="GUFgvOnC0UOVF5Jr0KTO-26" edge="1">
          <mxGeometry width="50" height="50" relative="1" as="geometry">
            <mxPoint x="390" y="410" as="sourcePoint" />
            <mxPoint x="440" y="360" as="targetPoint" />
          </mxGeometry>
        </mxCell>
        <mxCell id="macNor6OF41X3P5_E2Ki-1" value="" style="rounded=0;whiteSpace=wrap;html=1;fillColor=none;dashed=1;" vertex="1" parent="1">
          <mxGeometry x="110" y="340" width="620" height="80" as="geometry" />
        </mxCell>
        <mxCell id="macNor6OF41X3P5_E2Ki-2" value="Feature selection" style="text;html=1;align=center;verticalAlign=middle;whiteSpace=wrap;rounded=0;" vertex="1" parent="1">
          <mxGeometry x="110" y="310" width="110" height="30" as="geometry" />
        </mxCell>
        <mxCell id="macNor6OF41X3P5_E2Ki-4" style="edgeStyle=orthogonalEdgeStyle;rounded=0;orthogonalLoop=1;jettySize=auto;html=1;exitX=0.5;exitY=1;exitDx=0;exitDy=0;entryX=0.5;entryY=0;entryDx=0;entryDy=0;" edge="1" parent="1" source="macNor6OF41X3P5_E2Ki-3" target="GUFgvOnC0UOVF5Jr0KTO-1">
          <mxGeometry relative="1" as="geometry" />
        </mxCell>
        <mxCell id="macNor6OF41X3P5_E2Ki-3" value="Original dataset" style="rounded=1;whiteSpace=wrap;html=1;" vertex="1" parent="1">
          <mxGeometry x="354" y="130" width="120" height="60" as="geometry" />
        </mxCell>
      </root>
    </mxGraphModel>
  </diagram>
</mxfile>
